<svg width="689" height="178" viewBox="0 0 689 178" fill="none" xmlns="http://www.w3.org/2000/svg">
<path d="M224.32 64.65C218.43 64.65 213.64 69.49 213.64 75.42C213.64 81.35 218.44 86.2 224.32 86.2C230.2 86.2 235 81.37 235 75.42C235 69.47 230.21 64.65 224.32 64.65ZM314.33 125.66H267.9C264.94 125.6 258.07 124.71 258.07 117.65C258.07 110.59 264.94 109.68 267.82 109.62H324.58C329.48 109.62 333.44 105.58 333.44 100.6C333.44 95.62 329.48 91.59 324.58 91.59H267.82C256.78 91.59 240.34 98.53 240.34 117.65C240.34 136.77 256.77 143.7 267.82 143.7H314.34C316.62 143.7 324.09 144.27 324.09 151.73C324.09 159.19 317.21 159.7 314.34 159.76H249.21C244.31 159.76 240.34 163.79 240.34 168.77C240.34 173.75 244.31 177.79 249.21 177.79H314.34C325.39 177.79 341.81 170.86 341.81 151.73C341.81 132.6 325.39 125.67 314.34 125.67M221.65 91.58C217.23 91.58 213.64 95.61 213.64 100.59V168.76C213.64 173.75 217.23 177.78 221.65 177.78C226.07 177.78 229.66 173.75 229.66 168.76V100.59C229.66 95.61 226.08 91.58 221.65 91.58ZM510.03 64.65C505.6 64.65 502.01 68.74 502.01 73.77V168.65C502.01 173.7 505.6 177.78 510.03 177.78C514.46 177.78 518.03 173.7 518.03 168.65V73.77C518.03 68.74 514.45 64.65 510.03 64.65ZM459.27 159.53H370.02V130.34H459.24C462.04 130.48 468.46 132.17 468.46 144.93C468.46 157.69 462.07 159.37 459.27 159.53ZM370.02 82.9H459.22C462 83.02 468.46 84.7 468.46 97.49C468.46 110.28 462.07 111.94 459.27 112.09H370.02V82.91V82.9ZM459.39 64.65H361.26C356.42 64.65 352.49 68.74 352.49 73.77V168.65C352.49 173.7 356.42 177.78 361.26 177.78H459.39C466.79 177.78 485.99 171.88 485.99 144.93C485.99 133.75 482.67 126.22 478.26 121.21C482.67 116.19 485.99 108.68 485.99 97.49C485.99 70.55 466.78 64.65 459.39 64.65ZM687.9 73.67C687.85 69.81 685.4 66.39 681.77 65.14C678.15 63.89 674.13 65.08 671.75 68.11L611.27 145.34L550.18 68.08C547.78 65.05 543.75 63.88 540.12 65.15C536.49 66.43 534.06 69.9 534.06 73.78V168.64C534.06 173.69 538.12 177.77 543.11 177.77C548.1 177.77 552.16 173.69 552.16 168.64V99.85L604.23 165.71C605.94 167.89 608.55 169.15 611.3 169.15H611.32C614.08 169.14 616.68 167.87 618.4 165.68L670.09 99.68L670.84 168.74C670.9 173.75 674.94 177.76 679.88 177.76H679.99C684.99 177.71 688.99 173.57 688.93 168.54L687.91 73.66L687.9 73.67ZM144.04 164.08L144.02 164.1C145.12 165.62 144.78 167.76 143.27 168.86C141.77 169.96 139.66 169.63 138.58 168.11C138.55 168.06 138.54 168.01 138.5 167.96L90.81 101.44L43.18 167.87L43.16 167.85C43.11 167.93 43.1 168.03 43.05 168.11C41.95 169.63 39.85 169.96 38.34 168.86C36.84 167.75 36.5 165.62 37.6 164.1C37.69 163.97 37.82 163.9 37.94 163.79L37.84 163.71L85.36 97.42L8.34 72.05C8.26 72.03 8.18 72.05 8.09 72.03C6.32 71.44 5.35 69.52 5.93 67.73C6.5 65.94 8.4 64.96 10.16 65.54L10.18 65.49L87.44 90.93V8.64001C87.44 6.75001 88.95 5.22998 90.81 5.22998C92.67 5.22998 94.17 6.75001 94.17 8.64001V90.93L171.43 65.49L171.45 65.54C173.22 64.96 175.12 65.94 175.69 67.73C176.25 69.52 175.29 71.44 173.52 72.03C173.44 72.05 173.35 72.03 173.27 72.05L96.25 97.42L144.03 164.08H144.04ZM174.61 100.08L181.59 69.32L179.51 62.84L156.02 42.12L125.27 52.24L120.87 53.69V16.24L94.16 0H87.43L60.72 16.24V53.69L56.31 52.24L25.57 42.12L2.08 62.84L0 69.32L6.99 100.08L37.73 110.2L42.14 111.64L39.41 115.44L20.41 141.94L32.6 171L38.04 175L69.06 177.77L88.05 151.27L90.78 147.47L93.5 151.27L112.5 177.77L143.52 175L148.97 171L161.16 141.94L142.16 115.44L139.44 111.64L143.85 110.2L174.59 100.08H174.61Z" fill="white"/>
</svg>
